<svg width="22" height="22" viewBox="0 0 22 22" fill="none" xmlns="http://www.w3.org/2000/svg">
<g clip-path="url(#clip0_53_626)">
<path d="M20.4503 5.11455C19.9294 4.59376 19.3011 4.33329 18.5649 4.33329H16.2316L15.7004 2.91673C15.5684 2.57651 15.3272 2.28306 14.9764 2.03642C14.6256 1.78989 14.2663 1.66653 13.8982 1.66653H8.56478C8.19672 1.66653 7.83731 1.78989 7.48658 2.03642C7.13585 2.28306 6.89461 2.57651 6.76264 2.91673L6.23142 4.33329H3.8981C3.16187 4.33329 2.53352 4.59376 2.01263 5.11455C1.49184 5.63537 1.23145 6.26379 1.23145 6.99995V16.3333C1.23145 17.0695 1.49184 17.698 2.01263 18.2186C2.53352 18.7395 3.1619 19 3.8981 19H18.5647C19.3008 19 19.9291 18.7395 20.45 18.2186C20.9708 17.698 21.2312 17.0695 21.2312 16.3333V6.99995C21.2314 6.26379 20.9709 5.63537 20.4503 5.11455ZM14.5283 14.9636C13.6151 15.8768 12.5162 16.3335 11.2314 16.3335C9.94658 16.3335 8.8478 15.8768 7.93454 14.9636C7.02128 14.0505 6.56475 12.9514 6.56475 11.6669C6.56475 10.382 7.02143 9.28321 7.93454 8.36996C8.84769 7.4567 9.94661 7.00016 11.2314 7.00016C12.5162 7.00016 13.6151 7.45681 14.5283 8.36996C15.4415 9.2831 15.8981 10.382 15.8981 11.6669C15.8981 12.9514 15.4415 14.0504 14.5283 14.9636Z" fill="white"/>
<path d="M11.2315 8.66663C10.4051 8.66663 9.69851 8.96004 9.11168 9.54694C8.52486 10.1338 8.23145 10.8403 8.23145 11.6669C8.23145 12.4931 8.52486 13.1997 9.11168 13.7866C9.69851 14.3733 10.4051 14.6667 11.2315 14.6667C12.0578 14.6667 12.7645 14.3733 13.3514 13.7866C13.9382 13.1997 14.2316 12.4932 14.2316 11.6669C14.2316 10.8403 13.9382 10.1338 13.3514 9.54694C12.7646 8.96008 12.0578 8.66663 11.2315 8.66663Z" fill="white"/>
</g>
<defs>
<clipPath id="clip0_53_626">
<rect width="21.5385" height="21.5385" fill="white" transform="translate(0.231445 0.230736)"/>
</clipPath>
</defs>
</svg>
