<svg width="18" height="18" viewBox="0 0 18 18" fill="none" xmlns="http://www.w3.org/2000/svg">
<g clip-path="url(#clip0_58_6)">
<path d="M1.07438 10.4627C1.68769 9.84388 2.49824 9.46703 3.3586 9.38743C2.61589 8.71922 2.14728 7.75456 2.14728 6.67696C2.14728 4.66097 3.78093 3.02731 5.79732 3.02731C7.72312 3.02731 9.29991 4.51901 9.43677 6.40952C7.72351 7.15066 6.52121 8.85804 6.52121 10.8403C6.52121 11.5642 6.68591 12.2716 6.99217 12.9135C6.55101 13.1441 6.14436 13.4422 5.78987 13.7998C4.88089 14.715 4.36444 15.9805 4.37424 17.2706L4.37503 17.2969L4.37581 17.3192L4.40797 17.9298H0.0359974L-7.9155e-05 13.0947C-0.00752926 12.1085 0.378729 11.1626 1.07438 10.4627Z" fill="#4356B4"/>
<path d="M8.90846 13.5516C8.16614 12.8838 7.69597 11.9187 7.69597 10.8411C7.69597 8.82472 9.33041 7.19067 11.3464 7.19067C13.3628 7.19067 14.9968 8.82472 14.9968 10.8411C14.9968 11.9167 14.5286 12.881 13.7875 13.5492C15.6854 13.6963 17.1846 15.268 17.1983 17.2032L17.2344 17.9298H11.6844H5.58547L5.54939 17.2577C5.54234 16.2718 5.92899 15.326 6.62425 14.626C7.23834 14.0068 8.0485 13.6312 8.90846 13.5516Z" fill="#4356B4"/>
<path d="M15.6456 4.4602V5.81621C15.6456 6.37776 15.1891 6.83382 14.6272 6.83382C14.0645 6.83382 13.6088 6.37776 13.6088 5.81621V4.4602H12.2544C11.6924 4.4602 11.2364 4.00374 11.2364 3.44181C11.2364 2.88026 11.6924 2.42381 12.2544 2.42381H13.6088V1.08779C13.6088 0.525857 14.0645 0.0701904 14.6272 0.0701904C15.1891 0.0701904 15.6456 0.525857 15.6456 1.08779V2.42342H16.982C17.5447 2.42342 18 2.87987 18 3.44142C18 4.00335 17.5447 4.4598 16.982 4.4598H15.6456V4.4602Z" fill="#4356B4"/>
</g>
<defs>
<clipPath id="clip0_58_6">
<rect width="18" height="18" fill="white" transform="matrix(-1 0 0 1 18 0)"/>
</clipPath>
</defs>
</svg>
