<svg width="16" height="16" viewBox="0 0 16 16" fill="none" xmlns="http://www.w3.org/2000/svg">
<g clip-path="url(#clip0_45_74)">
<path d="M12 4.75C12.5523 4.75 13 4.30228 13 3.75C13 3.19772 12.5523 2.75 12 2.75C11.4477 2.75 11 3.19772 11 3.75C11 4.30228 11.4477 4.75 12 4.75Z" fill="#4356B4"/>
<path d="M11.125 0C8.43691 0 6.25 2.18691 6.25 4.875C6.25 5.25156 6.29297 5.62444 6.37803 5.98809L0 12.3661V16H4V14.25H5.75V12.5H7.5V10.75H8.88387L10.0119 9.62197C10.3756 9.70703 10.7485 9.75 11.125 9.75C13.8131 9.75 16 7.56309 16 4.875C16 2.18691 13.8131 0 11.125 0ZM11.125 8.5C10.7473 8.5 10.3748 8.44203 10.0178 8.32769L9.65475 8.21138L8.36613 9.5H6.25V11.25H4.5V13H2.75V14.75H1.25V12.8839L7.78866 6.34525L7.67234 5.98219C7.55797 5.62528 7.5 5.25278 7.5 4.875C7.5 2.87616 9.12616 1.25 11.125 1.25C13.1238 1.25 14.75 2.87616 14.75 4.875C14.75 6.87384 13.1238 8.5 11.125 8.5Z" fill="#4356B4"/>
</g>
<defs>
<clipPath id="clip0_45_74">
<rect width="16" height="16" fill="white"/>
</clipPath>
</defs>
</svg>
