<svg width="24" height="24" viewBox="0 0 24 24" fill="none" xmlns="http://www.w3.org/2000/svg">
<g clip-path="url(#clip0_29_115)">
<path d="M22.5713 9.85951L3.20749 1.82466C2.39172 1.48612 1.47011 1.63505 0.80238 2.21311C0.134646 2.79127 -0.144635 3.68208 0.0736146 4.53788L1.79716 11.2969H10.2359C10.6242 11.2969 10.9391 11.6117 10.9391 12.0001C10.9391 12.3884 10.6242 12.7032 10.2359 12.7032H1.79716L0.0736146 19.4622C-0.144635 20.318 0.134599 21.2088 0.80238 21.787C1.47147 22.3662 2.39318 22.5133 3.20754 22.1754L22.5713 14.1406C23.4529 13.7748 24.0006 12.9546 24.0006 12.0001C24.0006 11.0455 23.4529 10.2253 22.5713 9.85951Z" fill="#4356B4"/>
</g>
<defs>
<clipPath id="clip0_29_115">
<rect width="24" height="24" fill="white"/>
</clipPath>
</defs>
</svg>
