<svg width="12" height="12" viewBox="0 0 12 12" fill="none" xmlns="http://www.w3.org/2000/svg">
<g clip-path="url(#clip0_53_217)">
<path d="M9.25681 5.14766C9.19654 5.08696 9.12982 5.03574 9.06051 4.99118L4.40941 0.340299C3.95547 -0.113209 3.21979 -0.113424 2.76563 0.340515C2.31169 0.794238 2.31169 1.53014 2.76563 1.98429L6.77144 5.98967L2.7454 10.0161C2.29125 10.4697 2.29125 11.2058 2.7454 11.6599C2.97248 11.8866 3.26972 12 3.56697 12C3.86421 12 4.1621 11.8866 4.38853 11.6595L9.06051 6.98817C9.12982 6.94361 9.19633 6.8926 9.25681 6.83169C9.48927 6.59923 9.60076 6.29402 9.59559 5.98967C9.60098 5.68511 9.48927 5.37947 9.25681 5.14766Z" fill="#999999"/>
</g>
<defs>
<clipPath id="clip0_53_217">
<rect width="12" height="12" fill="white"/>
</clipPath>
</defs>
</svg>
