<svg width="18" height="18" viewBox="0 0 18 18" fill="none" xmlns="http://www.w3.org/2000/svg">
<path d="M17.3604 14.1845L14.3978 11.2219C14.9364 10.1446 15.2955 8.88778 15.2955 7.63092C15.2955 3.41147 11.8841 0 7.6646 0C3.44515 0 0.0336761 3.41147 0.0336761 7.63092C0.0336761 11.8504 3.44515 15.2618 7.6646 15.2618C8.92146 15.2618 10.1783 14.9027 11.2556 14.3641L14.2182 17.3267C15.116 18.2244 16.4626 18.2244 17.3604 17.3267C18.1683 16.4289 18.1683 15.0823 17.3604 14.1845ZM7.6646 13.4663C4.43268 13.4663 1.82919 10.8628 1.82919 7.63092C1.82919 4.399 4.43268 1.79551 7.6646 1.79551C10.8965 1.79551 13.5 4.399 13.5 7.63092C13.5 10.8628 10.8965 13.4663 7.6646 13.4663Z" fill="#4356B4"/>
</svg>
