<svg width="24" height="24" viewBox="0 0 24 24" fill="none" xmlns="http://www.w3.org/2000/svg">
<g clip-path="url(#clip0_53_347)">
<path d="M1.70174 10.7477C2.31938 7.24433 4.79252 4.37611 8.06594 3.1943L7.91226 3.46062C7.69797 3.83159 7.82497 4.30599 8.19594 4.52028C8.31819 4.59082 8.4515 4.62443 8.58316 4.62443C8.85113 4.62443 9.11185 4.48533 9.25551 4.2366L10.3249 2.38523C10.4278 2.20703 10.4558 1.99533 10.4026 1.79665C10.3493 1.59788 10.2194 1.42847 10.0412 1.32557L8.18933 0.256074C7.81804 0.0417828 7.34385 0.168992 7.12966 0.539865C6.91547 0.910841 7.04248 1.38524 7.41345 1.59943L7.60664 1.71102C3.78467 3.0642 0.893081 6.39968 0.174089 10.4782C-0.173824 12.4495 0.00333813 14.481 0.68634 16.3534C0.801139 16.6681 1.09837 16.8633 1.41516 16.8633C1.50338 16.8633 1.59325 16.8481 1.68085 16.8162C2.08337 16.6693 2.29063 16.2241 2.14377 15.8217C1.55405 14.2053 1.4012 12.4508 1.70174 10.7477Z" fill="#999999"/>
<path d="M20.0273 18.6883C19.6993 18.4126 19.2101 18.455 18.9345 18.783C16.678 21.4673 13.1341 22.7574 9.68466 22.1485C8.01036 21.8533 6.44806 21.1271 5.14794 20.0602H5.39749C5.82597 20.0602 6.17316 19.7129 6.17316 19.2846C6.17316 18.8562 5.82597 18.5089 5.39749 18.5089H3.33246C3.13316 18.4901 2.92673 18.5478 2.76126 18.6866C2.59992 18.8219 2.50798 19.0088 2.48833 19.203C2.48822 19.2037 2.48812 19.2043 2.48802 19.205C2.48802 19.2052 2.48802 19.2054 2.48802 19.2057C2.48584 19.2279 2.48481 19.2502 2.4846 19.2726C2.4845 19.2765 2.48398 19.2802 2.48398 19.2842L2.48315 21.4219C2.48295 21.8503 2.83014 22.1977 3.25851 22.1979H3.25882C3.68709 22.1979 4.03428 21.8508 4.03449 21.4225L4.03459 21.1524C5.56473 22.4461 7.42168 23.3247 9.41525 23.6762C10.0695 23.7916 10.7265 23.8481 11.3797 23.8481C14.712 23.8481 17.9382 22.379 20.122 19.7812C20.3977 19.4533 20.3553 18.964 20.0273 18.6883Z" fill="#999999"/>
<path d="M23.8961 14.7355C23.682 14.3646 23.2074 14.2375 22.8365 14.4516L22.5814 14.5989C22.5919 14.5441 22.6043 14.4896 22.614 14.4347C23.1423 11.4373 22.4721 8.41384 20.7265 5.92094C18.9809 3.42805 16.3691 1.76429 13.3722 1.23632C12.9503 1.16206 12.548 1.44378 12.4738 1.86564C12.3995 2.2875 12.6812 2.68982 13.103 2.76418C15.6918 3.22027 17.9481 4.65743 19.4559 6.81089C20.9607 8.95991 21.5401 11.5655 21.089 14.1495L20.9753 13.9527C20.7612 13.5818 20.2868 13.4544 19.9158 13.6686C19.5447 13.8827 19.4176 14.3571 19.6317 14.7282L20.7006 16.5804C20.8036 16.7586 20.973 16.8886 21.1717 16.9418C21.2378 16.9595 21.3053 16.9683 21.3725 16.9683C21.5074 16.9683 21.6414 16.9331 21.7603 16.8644L23.6122 15.7952C23.9832 15.5809 24.1103 15.1065 23.8961 14.7355Z" fill="#999999"/>
</g>
<defs>
<clipPath id="clip0_53_347">
<rect width="24" height="24" fill="white"/>
</clipPath>
</defs>
</svg>
