<svg width="124" height="124" viewBox="0 0 124 124" fill="none" xmlns="http://www.w3.org/2000/svg">
<g opacity="0.5">
<path d="M31.3 46.2969C30.287 46.2969 29.4347 45.5095 29.3684 44.4841C29.2993 43.4163 30.1092 42.4948 31.177 42.4258C31.6924 42.3923 32.2133 42.3718 32.7248 42.364C32.7348 42.364 32.7447 42.3638 32.7546 42.3638C33.811 42.3638 34.6754 43.2121 34.6914 44.2722C34.7074 45.3422 33.8532 46.2225 32.7832 46.2385C32.3352 46.2453 31.8789 46.2635 31.427 46.2928C31.3846 46.2954 31.3422 46.2969 31.3 46.2969Z" fill="#85CAE0"/>
<path d="M41.0926 47.4313C40.8945 47.4313 40.693 47.4008 40.4942 47.3361C39.6949 47.0767 38.8526 46.8595 37.9907 46.6904C36.9408 46.4846 36.2564 45.4664 36.4622 44.4163C36.6681 43.3664 37.6862 42.6817 38.7364 42.8879C39.7502 43.0867 40.7441 43.3432 41.6906 43.6503C42.7085 43.9806 43.2655 45.0733 42.9354 46.0913C42.6692 46.9106 41.9097 47.4313 41.0926 47.4313Z" fill="#85CAE0"/>
<path d="M36.5385 76.2402C35.5126 76.2402 34.6565 75.4349 34.6051 74.3988C34.5521 73.33 35.3755 72.4206 36.4441 72.3676L36.5838 72.3598C37.3874 72.3107 38.1745 72.2041 38.9255 72.0431C39.973 71.8188 41.0018 72.4853 41.2263 73.5313C41.4506 74.5776 40.7843 75.6076 39.738 75.8321C38.7979 76.0338 37.817 76.1668 36.8228 76.2273C36.7623 76.2312 36.6991 76.2346 36.6361 76.2378C36.6037 76.2394 36.571 76.2402 36.5385 76.2402ZM30.9953 75.4443C30.7803 75.4443 30.5618 75.4085 30.3477 75.3325C29.346 74.9772 28.3727 74.5185 27.4546 73.9687C26.5364 73.4189 26.2378 72.2293 26.7876 71.3112C27.3371 70.3933 28.5267 70.0939 29.4451 70.6442C30.1433 71.0622 30.8827 71.411 31.6429 71.6803C32.4957 71.9825 33.0375 72.8675 32.9159 73.7645C32.7875 74.7139 31.9537 75.4443 30.9953 75.4443ZM44.52 73.7498C43.6319 73.7498 42.8361 73.1223 42.6319 72.2572C42.4457 71.4679 42.7862 70.6238 43.4672 70.1843C44.1522 69.742 44.8012 69.2315 45.396 68.6665C46.1722 67.9298 47.3984 67.9615 48.1352 68.7372C48.8719 69.5132 48.8402 70.7396 48.0644 71.4764C47.2955 72.2065 46.4558 72.8672 45.5692 73.4395C45.2442 73.6495 44.8799 73.7498 44.52 73.7498ZM24.271 70.5093C23.6917 70.5093 23.1187 70.2506 22.737 69.7571C22.1013 68.9348 21.5282 68.0443 21.0337 67.11C20.5331 66.1642 20.894 64.9918 21.8399 64.4912C22.7854 63.9903 23.9581 64.3517 24.4587 65.2974C24.8498 66.0363 25.3018 66.7394 25.8024 67.3865C26.7655 68.6321 25.8556 70.5093 24.271 70.5093ZM50.0419 67.4827C48.6283 67.4827 47.6837 65.9516 48.3049 64.6895C48.6704 63.9465 48.9748 63.1667 49.2095 62.3721C49.5127 61.3459 50.5907 60.7598 51.6166 61.0628C52.6428 61.366 53.2288 62.4437 52.9259 63.4699C52.6289 64.4745 52.2441 65.4604 51.7818 66.4001C51.4449 67.085 50.7571 67.4827 50.0419 67.4827ZM20.9487 62.8213C20.0223 62.8213 19.203 62.1548 19.0412 61.2108C18.8685 60.2021 18.7685 59.1638 18.7443 58.1246C18.7196 57.0548 19.5668 56.1675 20.6365 56.1425C21.7133 56.1224 22.5936 56.965 22.6186 58.0347C22.6382 58.8853 22.7196 59.7337 22.8608 60.5561C23.0606 61.7237 22.1332 62.8213 20.9487 62.8213ZM51.6813 59.2832C50.6796 59.2832 49.8312 58.5121 49.7518 57.4966C49.6876 56.6748 49.5396 55.8877 49.3117 55.1568C48.9935 54.1353 49.5636 53.0491 50.5851 52.7306C51.6064 52.4121 52.6929 52.9825 53.0114 54.004C53.3252 55.011 53.5282 56.0844 53.6151 57.1943C53.7018 58.3065 52.7958 59.2832 51.6813 59.2832ZM21.3275 54.4322C20.0693 54.4322 19.1274 53.1999 19.4563 51.9871C19.6954 51.1055 20.0519 50.0992 20.4876 49.0767C20.9068 48.0925 22.0448 47.6342 23.0296 48.0537C24.0138 48.4732 24.472 49.6112 24.0526 50.5957C23.589 51.6836 23.3311 52.5044 23.1964 53.0014C22.9622 53.8643 22.1807 54.4322 21.3275 54.4322ZM48.2846 51.7277C47.7765 51.7277 47.2693 51.5291 46.8891 51.1343C46.342 50.5664 45.7155 50.0334 45.0272 49.5497C44.1517 48.9346 43.9405 47.726 44.5556 46.8505C45.1708 45.975 46.3793 45.7638 47.2548 46.379C48.1453 47.0046 48.9613 47.7001 49.6796 48.4461C50.4219 49.2167 50.3991 50.4434 49.6285 51.1857C49.2529 51.5478 48.7682 51.7277 48.2846 51.7277ZM24.9496 46.8173C23.4318 46.8173 22.5033 45.0763 23.3325 43.8152C23.8736 42.9922 24.4573 42.1785 25.0668 41.3967C25.7249 40.5527 26.9426 40.4023 27.7861 41.0601C28.6299 41.7181 28.7808 42.9356 28.1228 43.7794C27.5769 44.4795 27.0545 45.2078 26.5703 45.944C26.1981 46.51 25.58 46.8173 24.9496 46.8173ZM30.401 40.3706C28.6732 40.3706 27.822 38.1873 29.0799 37.0153C29.8018 36.3428 30.5599 35.6908 31.3332 35.0771C32.1714 34.4118 33.3898 34.5523 34.0554 35.3902C34.7207 36.2285 34.5802 37.4471 33.7422 38.1124C33.0486 38.6627 32.3688 39.2476 31.7212 39.8508C31.348 40.1986 30.8738 40.3706 30.401 40.3706ZM37.2123 35.3873C36.3733 35.3873 35.6008 34.8119 35.3559 34.0105C35.0961 33.1599 35.4831 32.2006 36.2566 31.763C37.1101 31.2803 37.9962 30.8226 38.8904 30.4024C39.8591 29.9478 41.0129 30.3641 41.468 31.3324C41.9228 32.3011 41.5065 33.4549 40.538 33.91C39.7315 34.2885 38.933 34.7012 38.1643 35.1359C37.863 35.3064 37.5354 35.3873 37.2123 35.3873Z" fill="#85CAE0"/>
<path d="M44.994 32.0681C44.0279 32.0681 43.1906 31.3254 43.0715 30.3675C42.9567 29.445 43.5413 28.5477 44.4299 28.277C44.9087 28.1309 45.4008 27.9904 45.8922 27.8592C46.9261 27.5831 47.9879 28.1973 48.264 29.2312C48.5401 30.2651 47.9259 31.3268 46.892 31.6029C46.4439 31.7225 45.9957 31.8507 45.5597 31.9836C45.3715 32.041 45.1812 32.0681 44.994 32.0681Z" fill="#85CAE0"/>
<path d="M5.70636 93.6687C5.00451 93.6687 4.32711 93.286 3.98296 92.6193C3.74949 92.1669 3.52256 91.7045 3.30823 91.2449C2.85607 90.2749 3.27602 89.1223 4.24574 88.6702C5.21594 88.218 6.36826 88.6382 6.82042 89.6077C7.01272 90.0204 7.21664 90.4357 7.42638 90.8423C8.07859 92.1063 7.13575 93.6687 5.70636 93.6687Z" fill="#85CAE0"/>
<path d="M3.16051 87.2728C2.31625 87.2728 1.5398 86.7167 1.29785 85.8642C1.03508 84.9395 0.809359 83.9964 0.62675 83.0611C0.421618 82.011 1.10677 80.9933 2.15689 80.7882C3.20774 80.5833 4.22492 81.2682 4.42981 82.3183C4.5916 83.1476 4.79213 83.9841 5.02511 84.8051C5.3712 86.0228 4.42836 87.2728 3.16051 87.2728Z" fill="#85CAE0"/>
<path d="M1.94428 79.2234C0.89367 79.2234 0.0307577 78.3833 0.00799217 77.3278C0.00266406 77.0837 0 76.8403 0 76.5974C0 75.883 0.0232499 75.1583 0.0687811 74.4436C0.137078 73.3758 1.05545 72.5684 2.12592 72.6335C3.19372 72.7018 4.00408 73.6226 3.93602 74.6907C3.89558 75.3233 3.87523 75.9648 3.87523 76.5974C3.87523 76.8125 3.87766 77.028 3.88226 77.2441C3.90527 78.3138 3.05688 79.2 1.98714 79.223C1.97261 79.2234 1.95857 79.2234 1.94428 79.2234ZM2.80453 71.1305C1.57276 71.1305 0.635014 69.9472 0.91692 68.7491C1.13489 67.8218 1.39476 66.8893 1.68901 65.9775C2.0179 64.9591 3.11065 64.4006 4.12808 64.7288C5.14647 65.0574 5.70544 66.1495 5.37679 67.1679C5.11451 67.9801 4.88322 68.8104 4.68922 69.636C4.47925 70.5284 3.68342 71.1305 2.80453 71.1305ZM5.60857 63.4881C4.1833 63.4881 3.23974 61.9339 3.88395 60.67C4.31819 59.8184 4.79167 58.9749 5.29082 58.1633C5.85124 57.2517 7.04449 56.9672 7.95609 57.5278C8.86768 58.0882 9.15201 59.2817 8.59159 60.1931C8.1462 60.9175 7.72383 61.6702 7.33609 62.4302C6.99388 63.1018 6.31357 63.4881 5.60857 63.4881ZM10.158 56.7356C8.52208 56.7356 7.62913 54.748 8.70008 53.523C9.16751 52.9883 9.6543 52.4673 10.1469 51.9745C10.3307 51.7907 10.5158 51.61 10.7022 51.432C11.4765 50.6933 12.7032 50.7219 13.4416 51.4962C14.1803 52.2704 14.1517 53.4969 13.3774 54.2355C13.2128 54.3927 13.0493 54.5523 12.8873 54.7146C12.4557 55.1464 12.0285 55.6037 11.6175 56.0735C11.2343 56.5114 10.6976 56.7356 10.158 56.7356Z" fill="#85CAE0"/>
<path d="M16.2903 51.3772C15.6628 51.3772 15.0471 51.0728 14.6742 50.5107C14.0825 49.619 14.3256 48.4167 15.2174 47.8251C15.6448 47.5415 16.0842 47.2647 16.5237 47.0021C17.4421 46.4531 18.6317 46.7532 19.1808 47.6718C19.7296 48.5904 19.4297 49.78 18.5111 50.3288C18.1239 50.5601 17.7366 50.8042 17.36 51.0542C17.0304 51.2726 16.6581 51.3772 16.2903 51.3772Z" fill="#85CAE0"/>
</g>
<path d="M49.3524 56.1874L43.5399 13.5625L70.6649 3.87499L122.977 0L68.7274 29.0624L49.3524 56.1874Z" fill="url(#paint0_linear_45_23)"/>
<path d="M53.2274 23.25L49.3524 56.1874L122.977 0L53.2274 23.25Z" fill="#4399B4"/>
<path d="M53.2274 23.25L90.4491 43.7218C91.3179 44.1996 92.4072 43.9444 92.9735 43.1306L122.977 0L53.2274 23.25Z" fill="url(#paint1_linear_45_23)"/>
<path d="M43.5399 13.5625L25.1187 3.64346C23.3464 2.689 24.0245 0 26.0373 0H122.977L43.5399 13.5625Z" fill="url(#paint2_linear_45_23)"/>
<defs>
<linearGradient id="paint0_linear_45_23" x1="83.2586" y1="0" x2="83.2586" y2="56.1874" gradientUnits="userSpaceOnUse">
<stop stop-color="#3DCFCF"/>
<stop offset="1" stop-color="#4356B4"/>
</linearGradient>
<linearGradient id="paint1_linear_45_23" x1="88.1024" y1="0" x2="88.1024" y2="43.9618" gradientUnits="userSpaceOnUse">
<stop stop-color="#9AABFE"/>
<stop offset="1" stop-color="#85CAE0"/>
</linearGradient>
<linearGradient id="paint2_linear_45_23" x1="73.537" y1="0" x2="73.537" y2="13.5625" gradientUnits="userSpaceOnUse">
<stop stop-color="#85CAE0"/>
<stop offset="1" stop-color="#9AABFE"/>
</linearGradient>
</defs>
</svg>
