<svg width="164" height="164" viewBox="0 0 164 164" fill="none" xmlns="http://www.w3.org/2000/svg">
<g opacity="0.5">
<path d="M41.3968 61.2314C40.0569 61.2314 38.9297 60.19 38.842 58.8338C38.7507 57.4216 39.8218 56.2028 41.2341 56.1115C41.9157 56.0673 42.6047 56.0401 43.2812 56.0298C43.2943 56.0298 43.3074 56.0295 43.3206 56.0295C44.7178 56.0295 45.861 57.1516 45.8821 58.5536C45.9033 59.9687 44.7735 61.133 43.3584 61.1542C42.7658 61.1631 42.1623 61.1872 41.5646 61.2259C41.5086 61.2294 41.4525 61.2314 41.3968 61.2314Z" fill="white"/>
<path d="M54.3483 62.7317C54.0863 62.7317 53.8198 62.6914 53.5568 62.6058C52.4998 62.2628 51.3857 61.9755 50.2457 61.7519C48.8572 61.4796 47.952 60.133 48.2243 58.7442C48.4965 57.3556 49.8431 56.4501 51.232 56.7227C52.5728 56.9857 53.8874 57.3249 55.1392 57.731C56.4854 58.1679 57.2221 59.6132 56.7856 60.9594C56.4335 62.0431 55.429 62.7317 54.3483 62.7317Z" fill="white"/>
<path d="M48.3251 100.834C46.9683 100.834 45.836 99.7687 45.7681 98.3984C45.6979 96.9849 46.787 95.7821 48.2002 95.712L48.385 95.7017C49.4478 95.6367 50.4888 95.4958 51.4821 95.2828C52.8675 94.9862 54.2282 95.8677 54.5251 97.2511C54.8217 98.6348 53.9405 99.9971 52.5568 100.294C51.3133 100.561 50.0161 100.737 48.7012 100.817C48.6211 100.822 48.5375 100.826 48.4542 100.831C48.4113 100.833 48.3681 100.834 48.3251 100.834ZM40.9938 99.7812C40.7094 99.7812 40.4205 99.7338 40.1373 99.6333C38.8125 99.1634 37.5252 98.5567 36.3109 97.8296C35.0966 97.1025 34.7016 95.5291 35.4287 94.3148C36.1555 93.1008 37.7289 92.7049 38.9435 93.4327C39.867 93.9855 40.8449 94.4468 41.8504 94.8029C42.9782 95.2027 43.6947 96.3731 43.5339 97.5596C43.3642 98.8152 42.2613 99.7812 40.9938 99.7812ZM58.8813 97.54C57.7068 97.54 56.6542 96.7101 56.3842 95.5659C56.1379 94.522 56.5882 93.4057 57.4889 92.8244C58.3948 92.2395 59.2532 91.5643 60.0399 90.817C61.0665 89.8426 62.6883 89.8846 63.6626 90.9105C64.637 91.9368 64.5951 93.5589 63.5691 94.5332C62.5521 95.499 61.4416 96.3728 60.2689 97.1297C59.8391 97.4074 59.3573 97.54 58.8813 97.54ZM32.1004 93.2542C31.3342 93.2542 30.5763 92.9121 30.0715 92.2594C29.2307 91.1719 28.4728 89.9941 27.8188 88.7583C27.1567 87.5075 27.6339 85.9569 28.8851 85.2948C30.1356 84.6324 31.6865 85.1103 32.3486 86.3611C32.8659 87.3384 33.4636 88.2683 34.1257 89.1241C35.3996 90.7715 34.1962 93.2542 32.1004 93.2542ZM66.1845 89.2513C64.3148 89.2513 63.0656 87.2263 63.8872 85.5571C64.3705 84.5744 64.7732 83.543 65.0835 82.4921C65.4846 81.1349 66.9103 80.3598 68.2671 80.7605C69.6243 81.1615 70.3994 82.5869 69.9987 83.944C69.606 85.2727 69.0971 86.5767 68.4856 87.8195C68.04 88.7253 67.1303 89.2513 66.1845 89.2513ZM27.7063 83.0863C26.4811 83.0863 25.3975 82.2048 25.1836 80.9562C24.9552 79.6221 24.8229 78.2489 24.7909 76.8745C24.7582 75.4596 25.8786 74.286 27.2935 74.253C28.7176 74.2264 29.8819 75.3408 29.9149 76.7556C29.9408 77.8806 30.0485 79.0026 30.2352 80.0904C30.4995 81.6346 29.273 83.0863 27.7063 83.0863ZM68.3527 78.4068C67.0278 78.4068 65.9058 77.3869 65.8007 76.0439C65.7158 74.9571 65.5201 73.916 65.2187 72.9493C64.7978 71.5983 65.5518 70.1617 66.9029 69.7405C68.2537 69.3193 69.6906 70.0736 70.1118 71.4247C70.5269 72.7565 70.7954 74.1761 70.9103 75.6441C71.025 77.115 69.8267 78.4068 68.3527 78.4068ZM28.2073 71.991C26.5433 71.991 25.2976 70.3612 25.7326 68.7571C26.0487 67.5912 26.5202 66.2603 27.0965 64.9079C27.6509 63.6062 29.1561 63.0001 30.4585 63.5549C31.7602 64.1097 32.3662 65.6148 31.8115 66.9169C31.1984 68.3558 30.8572 69.4413 30.6792 70.0986C30.3694 71.2398 29.3358 71.991 28.2073 71.991ZM63.8603 68.4141C63.1883 68.4141 62.5175 68.1514 62.0146 67.6293C61.2911 66.8782 60.4624 66.1731 59.5521 65.5335C58.3941 64.7199 58.1148 63.1215 58.9284 61.9636C59.742 60.8057 61.3404 60.5264 62.4983 61.34C63.6761 62.1673 64.7552 63.0873 65.7053 64.0738C66.687 65.0931 66.6569 66.7154 65.6377 67.6972C65.1409 68.1761 64.4999 68.4141 63.8603 68.4141ZM32.9979 61.9197C30.9905 61.9197 29.7624 59.617 30.8592 57.9491C31.5747 56.8607 32.3467 55.7845 33.1529 54.7505C34.0232 53.6342 35.6337 53.4353 36.7494 54.3053C37.8654 55.1756 38.0649 56.7858 37.1946 57.9017C36.4726 58.8278 35.7817 59.7909 35.1414 60.7647C34.6491 61.5133 33.8317 61.9197 32.9979 61.9197ZM40.2078 53.3933C37.9227 53.3933 36.7968 50.5057 38.4605 48.9557C39.4153 48.0662 40.4179 47.204 41.4407 46.3923C42.5493 45.5124 44.1608 45.6982 45.041 46.8065C45.9209 47.9151 45.7351 49.5269 44.6268 50.4068C43.7094 51.1345 42.8103 51.9081 41.9538 52.706C41.4602 53.1659 40.833 53.3933 40.2078 53.3933ZM49.2162 46.8026C48.1067 46.8026 47.0849 46.0416 46.7611 44.9816C46.4174 43.8567 46.9292 42.588 47.9523 42.0091C49.0811 41.3708 50.2531 40.7654 51.4357 40.2096C52.7169 39.6084 54.2429 40.159 54.8448 41.4396C55.4463 42.7209 54.8957 44.2468 53.6148 44.8487C52.5481 45.3494 51.4921 45.8952 50.4754 46.4701C50.0769 46.6956 49.6435 46.8026 49.2162 46.8026Z" fill="white"/>
<path d="M59.5082 42.4127C58.2304 42.4127 57.1231 41.4303 56.9655 40.1635C56.8137 38.9434 57.5869 37.7567 58.7622 37.3986C59.3954 37.2054 60.0463 37.0196 60.6962 36.846C62.0636 36.4809 63.4679 37.2932 63.833 38.6606C64.1982 40.028 63.3859 41.4323 62.0184 41.7974C61.4259 41.9556 60.833 42.1251 60.2564 42.3009C60.0075 42.3768 59.7558 42.4127 59.5082 42.4127Z" fill="white"/>
<path d="M7.54718 123.884C6.61891 123.884 5.723 123.378 5.26784 122.496C4.95906 121.898 4.65892 121.287 4.37545 120.679C3.77743 119.396 4.33285 117.871 5.61537 117.273C6.89854 116.675 8.42259 117.231 9.02061 118.513C9.27494 119.059 9.54464 119.609 9.82203 120.146C10.6846 121.818 9.43766 123.884 7.54718 123.884Z" fill="white"/>
<path d="M4.18011 115.425C3.06351 115.425 2.03659 114.69 1.71659 113.562C1.36906 112.339 1.07053 111.092 0.82901 109.855C0.557706 108.466 1.46387 107.12 2.85274 106.849C4.24257 106.578 5.58788 107.484 5.85887 108.873C6.07284 109.969 6.33806 111.076 6.6462 112.162C7.10392 113.772 5.85695 115.425 4.18011 115.425Z" fill="white"/>
<path d="M2.57146 104.779C1.18195 104.779 0.0406796 103.668 0.0105703 102.272C0.00352343 101.949 0 101.628 0 101.306C0 100.361 0.0307499 99.403 0.0909685 98.4577C0.181296 97.0455 1.39592 95.9775 2.8117 96.0637C4.22395 96.154 5.29572 97.3719 5.20571 98.7844C5.15222 99.6211 5.12531 100.47 5.12531 101.306C5.12531 101.591 5.12851 101.876 5.1346 102.161C5.16503 103.576 4.04298 104.748 2.62816 104.779C2.60894 104.779 2.59036 104.779 2.57146 104.779ZM3.70921 94.0758C2.08011 94.0758 0.839858 92.5108 1.2127 90.9262C1.50098 89.6997 1.84468 88.4665 2.23385 87.2606C2.66884 85.9136 4.11409 85.175 5.45972 85.609C6.80663 86.0437 7.54591 87.488 7.11124 88.8349C6.76435 89.9092 6.45845 91.0073 6.20188 92.0992C5.92417 93.2796 4.87162 94.0758 3.70921 94.0758ZM7.41778 83.9681C5.53275 83.9681 4.28481 81.9126 5.13684 80.2409C5.71116 79.1147 6.33737 77.9991 6.99753 76.9257C7.73873 75.72 9.31691 75.3437 10.5226 76.0852C11.7282 76.8264 12.1043 78.4049 11.3631 79.6102C10.774 80.5683 10.2154 81.5638 9.70257 82.5689C9.24997 83.4572 8.35021 83.9681 7.41778 83.9681ZM13.4348 75.0374C11.2711 75.0374 10.0901 72.4087 11.5066 70.7885C12.1248 70.0813 12.7686 69.3923 13.4201 68.7404C13.6632 68.4973 13.9079 68.2584 14.1546 68.0229C15.1786 67.046 16.801 67.0838 17.7776 68.1078C18.7546 69.1319 18.7168 70.7539 17.6927 71.7309C17.4749 71.9387 17.2587 72.1498 17.0444 72.3644C16.4736 72.9356 15.9086 73.5403 15.365 74.1617C14.8583 74.7408 14.1485 75.0374 13.4348 75.0374Z" fill="white"/>
<path d="M21.5452 67.9506C20.7152 67.9506 19.901 67.5479 19.4077 66.8045C18.6252 65.6251 18.9468 64.0351 20.1262 63.2525C20.6915 62.8775 21.2726 62.5113 21.8539 62.1641C23.0686 61.438 24.6419 61.8348 25.3681 63.0498C26.0939 64.2647 25.6974 65.8381 24.4824 66.5639C23.9702 66.8698 23.4581 67.1927 22.96 67.5233C22.524 67.8122 22.0317 67.9506 21.5452 67.9506Z" fill="white"/>
</g>
<path d="M65.2726 74.3124L57.5851 17.9375L93.46 5.12499L162.647 0L90.8975 38.4374L65.2726 74.3124Z" fill="#E4DAD9"/>
<path d="M70.3975 30.7499L65.2725 74.3124L162.647 0L70.3975 30.7499Z" fill="#F3EAE9"/>
<path d="M70.3975 30.7499L119.626 57.8256C120.775 58.4576 122.216 58.1199 122.965 57.0437L162.647 0L70.3975 30.7499Z" fill="#FFF7F7"/>
<path d="M57.585 17.9375L33.2215 4.81877C30.8774 3.55642 31.7743 0 34.4364 0H162.647L57.585 17.9375Z" fill="#FFF7F7"/>
</svg>
