<svg width="24" height="24" viewBox="0 0 24 24" fill="none" xmlns="http://www.w3.org/2000/svg">
<path d="M6.99994 7.00006C6.99994 8.10455 6.10455 8.99994 5.00006 8.99994C3.89539 8.99994 3 8.10455 3 7.00006C3 5.89539 3.89539 5 5.00006 5C6.10455 5 6.99994 5.89539 6.99994 7.00006Z" fill="#999999"/>
<path d="M21 1H3C1.34601 1 0 2.64512 0 4.66667V19.3333C0 19.4018 0.013916 19.4665 0.0170288 19.535C0.00292969 19.6816 0.00897216 19.8295 0.0529175 19.9689C0.299927 21.6874 1.52399 23 3 23H21C22.654 23 24 21.3549 24 19.3333V4.66667C24 2.64512 22.654 1 21 1ZM3 3.44452H21C21.551 3.44452 21.9999 3.99327 21.9999 4.66667V14.37L16.7401 7.94102C16.056 7.10492 14.9431 7.10492 14.2601 7.94102L9.50006 13.7588L8.23993 12.2189C7.55603 11.3828 6.44293 11.3828 5.75995 12.2189L2.00006 16.8143V4.66667C2.00006 3.99327 2.44904 3.44452 3 3.44452Z" fill="#999999"/>
</svg>
