<svg width="16" height="16" viewBox="0 0 16 16" fill="none" xmlns="http://www.w3.org/2000/svg">
<g clip-path="url(#clip0_53_744)">
<path d="M15.4782 14.9563H14.7826V11.3042C14.7826 10.4411 14.0804 9.73894 13.2174 9.73894H12.6956V6.08675C12.6956 5.22369 11.9935 4.52153 11.1304 4.52153H8.52172V4.08397C9.4435 3.75706 9.844 2.6735 9.3565 1.82797C9.35647 1.82791 9.35644 1.82784 9.35641 1.82775L8.45187 0.260719C8.25116 -0.0869688 7.74844 -0.0864063 7.54812 0.26075L6.64362 1.82784C6.15497 2.67466 6.55813 3.75766 7.47825 4.08397V4.52153H4.86956C4.0065 4.52153 3.30434 5.22369 3.30434 6.08675V9.73894H2.78262C1.91956 9.73894 1.21741 10.4411 1.21741 11.3042C1.21741 11.4332 1.21741 13.8592 1.21741 14.9563H0.52175C0.233594 14.9563 0 15.1899 0 15.4781C0 15.7663 0.233594 15.9998 0.52175 15.9998C0.835625 15.9998 14.0845 15.9998 15.4783 15.9998C15.7664 15.9998 16 15.7663 16 15.4781C16 15.1899 15.7664 14.9563 15.4782 14.9563ZM7.54741 2.34944L8 1.56525L8.45253 2.34925C8.65159 2.69431 8.40097 3.13025 8 3.13025C7.59797 3.13025 7.34909 2.69319 7.54741 2.34944ZM4.34781 6.08678C4.34781 5.79909 4.58188 5.56503 4.86956 5.56503H11.1304C11.4181 5.56503 11.6522 5.79909 11.6522 6.08678V7.59016C11.6035 7.54097 11.5509 7.48494 11.4919 7.42069C11.1893 7.0915 10.7749 6.64069 10.064 6.64069C9.35344 6.64069 8.93916 7.09141 8.63666 7.42047C8.3475 7.73503 8.20687 7.86319 7.97703 7.86319C7.73981 7.86319 7.58719 7.71075 7.31584 7.41862C7.01091 7.09034 6.59331 6.64072 5.89006 6.64072C5.17953 6.64072 4.76522 7.09144 4.46272 7.4205C4.42181 7.465 4.38394 7.50581 4.34781 7.54369V6.08678ZM4.34781 8.80791C4.74359 8.65662 5.01606 8.36044 5.23097 8.12666C5.51997 7.81222 5.66053 7.68416 5.89006 7.68416C6.12728 7.68416 6.27994 7.83659 6.55128 8.12872C6.85622 8.457 7.27378 8.90662 7.97703 8.90662C8.68791 8.90662 9.10231 8.45581 9.40491 8.12663C9.69391 7.81219 9.83447 7.68412 10.064 7.68412C10.2938 7.68412 10.4345 7.81225 10.7236 8.12684C10.9472 8.37009 11.232 8.67953 11.6522 8.82456V9.73894H4.34781V8.80791ZM2.26087 14.9563V13.2294C2.26116 13.2298 2.26147 13.2301 2.26175 13.2304C2.62459 13.6285 3.07619 14.124 3.80309 14.124C4.51397 14.124 4.92838 13.6732 5.23097 13.344C5.51997 13.0296 5.66053 12.9015 5.89006 12.9015C6.12728 12.9015 6.27994 13.054 6.55128 13.3461C6.85622 13.6744 7.27378 14.124 7.97703 14.124C8.68791 14.124 9.10231 13.6732 9.40491 13.344C9.69391 13.0296 9.83447 12.9015 10.064 12.9015C10.2938 12.9015 10.4345 13.0296 10.7236 13.3442C11.0261 13.6733 11.4404 14.124 12.151 14.124C12.8618 14.124 13.2762 13.6732 13.5788 13.344C13.6379 13.2797 13.6905 13.2237 13.7392 13.1745V14.9563H2.26087ZM13.7391 11.9401C13.3189 12.0852 13.0341 12.3946 12.8106 12.6378C12.5214 12.9524 12.3808 13.0806 12.1509 13.0806C11.9214 13.0806 11.7808 12.9525 11.4918 12.6381C11.1893 12.3089 10.7749 11.8581 10.064 11.8581C9.35341 11.8581 8.93913 12.3088 8.63663 12.6378C8.34747 12.9524 8.20684 13.0806 7.977 13.0806C7.73978 13.0806 7.58716 12.9281 7.31581 12.636C7.01088 12.3077 6.59328 11.8581 5.89003 11.8581C5.17947 11.8581 4.76519 12.3088 4.46269 12.6379C4.17353 12.9524 4.03291 13.0806 3.80306 13.0806C3.55484 13.0806 3.34653 12.8717 3.03294 12.5276C2.81303 12.2863 2.57175 12.0224 2.26081 11.8484V11.3042C2.26081 11.0165 2.49487 10.7824 2.78256 10.7824C3.05763 10.7824 12.9282 10.7824 13.2173 10.7824C13.505 10.7824 13.7391 11.0165 13.7391 11.3042V11.9401H13.7391Z" fill="#4356B4"/>
</g>
<defs>
<clipPath id="clip0_53_744">
<rect width="16" height="16" fill="white"/>
</clipPath>
</defs>
</svg>
