<svg width="21" height="21" viewBox="0 0 21 21" fill="none" xmlns="http://www.w3.org/2000/svg">
<path d="M7.96875 4C3.57469 4 0 7.154 0 11.0312C0 12.6691 0.648188 14.2562 1.82784 15.5141C2.06131 16.4768 1.77794 17.4967 1.07481 18.1998C0.780813 18.4938 0.988719 19 1.40625 19C2.742 19 4.02969 18.4768 4.98641 17.5539C5.93306 17.8918 6.93466 18.0625 7.96875 18.0625C12.3628 18.0625 16 14.9085 16 11.0312C16 7.154 12.3628 4 7.96875 4ZM4.28125 12.4375C3.50581 12.4375 2.875 11.8067 2.875 11.0312C2.875 10.2558 3.50581 9.625 4.28125 9.625C5.05669 9.625 5.6875 10.2558 5.6875 11.0312C5.6875 11.8067 5.05669 12.4375 4.28125 12.4375ZM8.03125 12.4375C7.25581 12.4375 6.625 11.8067 6.625 11.0312C6.625 10.2558 7.25581 9.625 8.03125 9.625C8.80669 9.625 9.4375 10.2558 9.4375 11.0312C9.4375 11.8067 8.80669 12.4375 8.03125 12.4375ZM11.7812 12.4375C11.0058 12.4375 10.375 11.8067 10.375 11.0312C10.375 10.2558 11.0058 9.625 11.7812 9.625C12.5567 9.625 13.1875 10.2558 13.1875 11.0312C13.1875 11.8067 12.5567 12.4375 11.7812 12.4375Z" fill="#4356B4"/>
<path d="M18.4092 5.39V6.74602C18.4092 7.30757 17.9528 7.76363 17.3908 7.76363C16.8281 7.76363 16.3725 7.30757 16.3725 6.74602V5.39H15.018C14.4561 5.39 14 4.93355 14 4.37162C14 3.81007 14.4561 3.35362 15.018 3.35362H16.3725V2.0176C16.3725 1.45567 16.8281 1 17.3908 1C17.9528 1 18.4092 1.45567 18.4092 2.0176V3.35323H19.7456C20.3084 3.35323 20.7636 3.80968 20.7636 4.37123C20.7636 4.93316 20.3084 5.38961 19.7456 5.38961H18.4092V5.39Z" fill="#4356B4"/>
</svg>
